<svg width="24.000000" height="24.000000" viewBox="0 0 24 24" fill="none" xmlns="http://www.w3.org/2000/svg"
  xmlns:xlink="http://www.w3.org/1999/xlink">
  <desc>
    Created with Pixso.
  </desc>
  <defs>
    <clipPath id="clip7_10613">
      <rect id="Frame" width="24.000000" height="24.000000" fill="white" fill-opacity="0" />
    </clipPath>
  </defs>
  <rect id="Frame" width="24.000000" height="24.000000" fill="#FFFFFF" fill-opacity="0" />
  <g clip-path="url(#clip7_10613)">
    <path id="Vector"
      d="M11.68 3.24C11.77 3.18 11.88 3.15 12 3.15C12.11 3.15 12.22 3.18 12.31 3.24C12.4 3.3 12.47 3.39 12.52 3.49L14.64 8.6C14.68 8.7 14.75 8.78 14.83 8.84C14.91 8.91 15.01 8.94 15.12 8.95L20.63 9.39C21.13 9.43 21.33 10.06 20.95 10.38L16.75 13.98C16.67 14.05 16.61 14.14 16.58 14.24C16.55 14.33 16.54 14.44 16.57 14.54L17.85 19.92C17.88 20.03 17.87 20.15 17.83 20.25C17.79 20.35 17.73 20.44 17.64 20.51C17.55 20.57 17.44 20.61 17.33 20.62C17.22 20.62 17.11 20.59 17.01 20.53L12.29 17.65C12.2 17.6 12.1 17.57 12 17.57C11.89 17.57 11.79 17.6 11.7 17.65L6.98 20.54C6.88 20.59 6.77 20.62 6.66 20.62C6.55 20.61 6.44 20.58 6.35 20.51C6.26 20.45 6.19 20.35 6.16 20.25C6.12 20.15 6.11 20.03 6.14 19.92L7.42 14.54C7.45 14.44 7.44 14.33 7.41 14.24C7.38 14.14 7.32 14.05 7.24 13.98L3.04 10.38C2.95 10.31 2.89 10.21 2.86 10.11C2.83 10 2.83 9.88 2.87 9.78C2.9 9.67 2.97 9.58 3.05 9.51C3.14 9.44 3.25 9.4 3.36 9.39L8.88 8.95C8.98 8.94 9.08 8.91 9.16 8.84C9.24 8.78 9.31 8.7 9.35 8.6L11.48 3.49C11.52 3.39 11.59 3.3 11.68 3.24Z"
      stroke="#424242" stroke-opacity="1.000000" stroke-width="1.500000" stroke-linejoin="round" />
  </g>
</svg>